<?xml version="1.0" encoding="UTF-8" standalone="no"?>
<!-- Created with Inkscape (http://www.inkscape.org/) -->

<svg
   width="48"
   height="48"
   viewBox="0 0 12.7 12.7"
   version="1.1"
   id="svg5"
   inkscape:version="1.1 (c68e22c387, 2021-05-23)"
   sodipodi:docname="user_icon_default.svg"
   xmlns:inkscape="http://www.inkscape.org/namespaces/inkscape"
   xmlns:sodipodi="http://sodipodi.sourceforge.net/DTD/sodipodi-0.dtd"
   xmlns="http://www.w3.org/2000/svg"
   xmlns:svg="http://www.w3.org/2000/svg">
  <sodipodi:namedview
     id="namedview7"
     pagecolor="#ffffff"
     bordercolor="#999999"
     borderopacity="1"
     inkscape:pageshadow="0"
     inkscape:pageopacity="0"
     inkscape:pagecheckerboard="0"
     inkscape:document-units="px"
     showgrid="true"
     units="px"
     inkscape:zoom="11.260382"
     inkscape:cx="24.46631"
     inkscape:cy="23.889065"
     inkscape:window-width="1920"
     inkscape:window-height="991"
     inkscape:window-x="-9"
     inkscape:window-y="-9"
     inkscape:window-maximized="1"
     inkscape:current-layer="layer2">
    <inkscape:grid
       type="xygrid"
       id="grid861" />
  </sodipodi:namedview>
  <defs
     id="defs2" />
  <g
     inkscape:groupmode="layer"
     id="layer2"
     inkscape:label="background">
    <rect
       style="fill:#8aff8a;fill-opacity:1;fill-rule:evenodd;stroke:#5b9bd5;stroke-width:0.499999"
       id="rect1231"
       width="12.7"
       height="12.170834"
       x="0"
       y="0.26458332" />
  </g>
  <g
     inkscape:label="Layer 1"
     inkscape:groupmode="layer"
     id="layer1"
     style="display:inline">
    <path
       style="fill:none;stroke:#000000;stroke-width:0.264583px;stroke-linecap:butt;stroke-linejoin:miter;stroke-opacity:1"
       d="M 4.2333333,3.175 C 3.9265735,3.1035336 3.6238695,2.9095853 3.3130537,2.9606012 2.7398794,3.0546796 2.7491298,3.6692429 2.7491298,4.0649524 c 0,0.1434939 0.011218,0.3679807 0.1409809,0.4699368 0.066331,0.052117 0.1569661,0.061869 0.2349685,0.093987 0.3163445,0.1302594 0.5496922,0.3421708 0.8928795,0.023498 0.04371,-0.040588 0.03582,-0.1159396 0.070491,-0.164478 0.045067,-0.063093 0.129803,-0.095128 0.164478,-0.164478 0.035027,-0.070054 0,-0.1566455 0,-0.2349682 0,-0.086155 0,-0.1723102 0,-0.2584651 0,-0.054826 0.031207,-0.1194004 0,-0.164478 0.031284,-0.3727878 -0.2261632,-0.061685 -0.3054591,-0.1409808 -0.022154,-0.022154 0.018799,-0.068924 0,-0.093987 -0.014097,-0.018799 -0.092115,-0.00919 -0.07049,0 0.02829,0.012023 0.061181,0.00603 0.091772,0.00904"
       id="path898" />
    <path
       style="fill:none;stroke:#000000;stroke-width:0.264583px;stroke-linecap:butt;stroke-linejoin:miter;stroke-opacity:1"
       d="M 8.7312499,3.175 C 8.0754939,4.7619565 7.228496,5.0627343 8.8583068,5.3572785 9.2052266,5.4199747 9.5851352,5.5033909 9.9156646,5.3807761 10.484509,5.1697532 10.371045,4.3759866 10.17413,3.9944627 10.112327,3.8747197 10.028685,3.7662217 9.9391612,3.665507 9.8434227,3.5578004 9.4152928,3.1797738 9.2812498,3.1015823 9.1976039,3.0527887 8.9058849,3.018205 8.8818036,2.9606012 c -0.016017,-0.038315 0.07602,-0.033456 0.1140296,-0.050185"
       id="path900" />
    <path
       style="fill:none;stroke:#000000;stroke-width:0.264583px;stroke-linecap:butt;stroke-linejoin:miter;stroke-opacity:1"
       d="M 3.175,7.4083332 C 3.8453287,8.8176705 3.723241,9.3518404 5.6157436,9.6337024 6.9167104,9.8274633 7.2151242,9.4108443 7.7304587,8.5293511 7.8649162,8.2993581 7.9272367,8.0322602 8.0594143,7.8009492 c 0.01098,-0.019214 0.1710733,-0.1451035 0.2349686,-0.093987 0.547692,0.4381537 1.288489,1.2537445 1.5272943,1.9267406 0.1191019,0.3356509 0.093987,0.3993662 0.093987,0.7284012 0,0.408518 0.088232,0.522611 -0.1409811,0.89288 -0.050322,0.08129 -0.08065,0.188998 -0.164478,0.234968 -0.2634094,0.144451 -1.1540725,0.303728 -1.4568038,0.328956 -0.1873252,0.01561 -0.3759493,0 -0.5639239,0 -0.9165965,0 -1.8392711,-0.0185 -2.7491298,-0.140981 -0.1659382,-0.02234 -0.3283868,-0.06581 -0.4934336,-0.09399 -0.1566455,-0.0235 -0.313291,-0.04699 -0.4699365,-0.07049 -0.1096521,-0.03133 -0.2169303,-0.07265 -0.3289557,-0.09399 -0.2928239,-0.05578 -0.068061,0.07257 -0.2349685,-0.07049 -0.029734,-0.02549 -0.072713,-0.03761 -0.093987,-0.07049 -0.0666,-0.102923 -0.1008539,-0.22416 -0.1644777,-0.328952 C 2.7747031,10.488537 2.7557828,10.664208 2.4906645,10.056645 2.1964054,9.3823016 2.29717,9.4426163 2.1852057,8.8348099 2.1285429,8.5272125 1.991332,8.1781181 2.1617088,7.8714398 2.1993635,7.8036615 2.2713607,7.761788 2.3261867,7.7069618 2.4045095,7.6286391 2.4682847,7.5323593 2.561155,7.4719936 2.6297157,7.427429 2.7205112,7.4326376 2.7961235,7.401503 2.8545135,7.37746 2.9088701,7.343728 2.9606012,7.307516 2.9878242,7.288461 2.9992642,7.246574 3.0310922,7.237026 3.1144682,7.212013 3.7103318,7.2371379 3.759494,7.28402 3.792319,7.315322 3.722609,7.366896 3.704167,7.4083342"
       id="path902" />
    <path
       style="fill:none;stroke:#000000;stroke-width:0.264583px;stroke-linecap:butt;stroke-linejoin:miter;stroke-opacity:1"
       d="M 3.4395833,3.175 C 3.3381256,3.4852758 3.0764149,3.9735259 3.148576,4.3704113 3.152536,4.3922073 3.183281,4.3418503 3.19557,4.3234173 3.230597,4.2708763 3.253346,4.2106706 3.289557,4.1589396 3.308612,4.1317166 3.350499,4.1202766 3.360048,4.0884486 3.368248,4.0610996 3.322119,3.6813689 3.313054,3.6655055 3.293626,3.6315035 3.255062,3.6104415 3.219067,3.5950145 c -0.021598,-0.00926 -0.06306,-0.022291 -0.07049,0 -0.021439,0.064314 -0.012483,0.5650261 0.046994,0.6344147 0.03568,0.041627 0.109652,0 0.1644779,0 0.031329,0 0.062658,0 0.093987,0 0.023498,0 0.059351,0.020688 0.070491,0 0.1507514,-0.279967 0.126546,-0.4619495 -0.046994,-0.704905 -0.08077,-0.1130776 -0.1578875,-0.1291373 -0.164478,-0.093987 -0.023096,0.1231699 0,0.2506329 0,0.3759493 0,0.054826 -0.029648,0.1183595 0,0.1644777 0.072126,0.1121955 0.2111457,0.1641523 0.3054588,0.2584654 0.0046,0.0046 0.095604,0.128833 0.1409811,0.070491 C 3.9064017,4.1110392 3.8744911,3.6865163 3.7124999,3.5245254 3.5905326,3.4025578 3.4350213,3.3175371 3.3130537,3.1955695 3.2437215,3.1262373 3.1368336,3.0193321 3.0545886,3.1720718 3.0158206,3.2440688 3.0113126,3.3299304 2.9840976,3.4070401 2.9642456,3.4632881 2.9239726,3.5127766 2.9136066,3.5715178 2.9035236,3.6286588 2.8994306,3.9021482 2.9606006,3.970964 3.0532456,4.0751902 3.1819108,4.1407802 3.2895563,4.2294294 3.4560689,4.3665571 3.5950447,4.4502641 3.759493,4.2529274 3.799918,4.2044174 3.836133,4.1491658 3.85348,4.0884494 3.890215,3.959877 3.86285,3.5343521 3.782989,3.4305381 3.74662,3.3832591 3.6710303,3.3883271 3.618511,3.3600471 3.568783,3.3332701 3.52997,3.2870361 3.4775302,3.2660601 3.4014762,3.2356391 3.114515,3.3650911 3.0545871,3.4070412 2.9954301,3.4484512 2.9690631,3.6177662 2.913606,3.5715189 2.879821,3.5433449 2.911476,3.4835619 2.910416,3.4395836"
       id="path974" />
    <path
       style="fill:none;stroke:#000000;stroke-width:0.264583px;stroke-linecap:butt;stroke-linejoin:miter;stroke-opacity:1"
       d="m 9.2604166,3.7041666 c -0.7793562,0.1299652 -0.7152011,-0.060412 -0.9425369,0.92471 -0.030146,0.1306335 -0.021355,0.2841093 0.046994,0.3994462 0.1829644,0.3087526 0.7319227,0.3062939 0.986867,0.3289557 0.4763418,0.042342 0.2693368,0.033481 0.5639242,-0.070491 0.07711,-0.027215 0.1793261,-0.01057 0.2349681,-0.070491 0.03228,-0.034768 0.0971,-0.3107391 0.07049,-0.3994462 C 10.195517,4.7314966 10.025637,4.3394029 9.9391612,4.2529273 9.8669513,4.1807172 9.7689055,4.1399049 9.6806961,4.0884493 9.319121,3.8775303 8.9731127,3.7594936 8.552848,3.7594936 c -0.152426,0 -0.2338303,-0.03568 -0.3289557,0.1409812 -0.025993,0.048272 0,0.1096517 0,0.1644776 0,0.054826 0,0.1096521 0,0.164478 0,0.046994 -0.019693,0.098313 0,0.1409809 0.018188,0.039408 0.2759506,0.3109229 0.3054588,0.3289556 0.078224,0.047804 0.1772571,0.05145 0.2584654,0.093987 0.08469,0.044362 0.1447305,0.1328947 0.2349682,0.164478 0.073926,0.025874 0.1578375,-0.013613 0.2349683,0 0.06461,0.011401 0.3578995,0.1800362 0.3994462,0 C 9.6987605,4.7777333 9.6247478,4.5295703 9.5162184,4.3939081 9.4591591,4.3225841 9.3578327,4.302706 9.2812498,4.2529273 9.2490847,4.2320199 8.9611739,4.0171391 8.8818036,3.9944619 c -0.052716,-0.015063 -0.1096518,0 -0.1644777,0 -0.023498,0 -0.057016,-0.019248 -0.070491,0 -0.035921,0.051315 -0.1431433,0.3186007 -0.093987,0.3759494 0.1203573,0.140417 0.3689315,0.1987769 0.5404273,0.1644779 0.015362,-0.00307 0.014645,-0.041437 0,-0.046994 -0.030528,-0.011583 -0.064961,0.00668 -0.097442,0.010021"
       id="path976" />
  </g>
</svg>
